<svg width="200" height="50" viewBox="0 0 2000 461" fill="none" xmlns="http://www.w3.org/2000/svg">
<path d="M242.561 0H0V301.094H242.561C274.761 301.094 301.094 275.166 301.094 242.966V58.1284C301.094 25.9285 274.761 0 242.561 0ZM245.461 242.966C245.461 244.652 244.213 245.899 242.561 245.899H58.1284C56.4762 245.899 55.195 244.652 55.195 242.966V58.1284C55.195 56.4762 56.4762 55.2287 58.1284 55.2287H242.561C244.213 55.2287 245.461 56.4762 245.461 58.1284V242.966Z" fill="url(#paint0_linear_883_22465)"/>
<path d="M731.73 130.485L622.149 0H561.931V301.094H617.126V80.3143L731.73 216.194L845.863 80.3143V301.094H901.496V0H840.873L731.73 130.485Z" fill="url(#paint1_linear_883_22465)"/>
<path d="M1085.86 85.9458H918.59V134.532H1085.86C1087.34 134.532 1088.46 135.645 1088.46 137.162V169.059H918.59V249.912C918.59 278.1 941.585 301.095 969.772 301.095H1137.04V137.162C1137.04 108.941 1114.05 85.9458 1085.86 85.9458ZM1088.46 252.509H969.772C968.289 252.509 967.176 251.396 967.176 249.912V218.016H1088.46V252.509Z" fill="url(#paint2_linear_883_22465)"/>
<path d="M1993.02 218.016V137.162C1993.02 108.941 1970.03 85.9458 1941.84 85.9458H1825.75C1797.56 85.9458 1774.57 108.941 1774.57 137.162V249.912C1774.57 278.1 1797.56 301.095 1825.75 301.095H1993.02V252.509H1825.75C1824.27 252.509 1823.15 251.396 1823.15 249.912V218.016H1993.02ZM1823.15 137.162C1823.15 135.645 1824.27 134.532 1825.75 134.532H1941.84C1943.32 134.532 1944.43 135.645 1944.43 137.162V169.059H1823.15V137.162Z" fill="url(#paint3_linear_883_22465)"/>
<path d="M1210.11 15.5103H1161.52V249.912C1161.52 278.099 1184.15 301.095 1212.71 301.095H1293.93V252.508H1212.71C1211.22 252.508 1210.11 251.395 1210.11 249.912V134.532H1293.93V85.9454H1210.11V15.5103Z" fill="url(#paint4_linear_883_22465)"/>
<path d="M541.565 218.016V137.162C541.565 108.941 518.57 85.9458 490.383 85.9458H374.294C346.107 85.9458 323.112 108.941 323.112 137.162V249.912C323.112 278.1 346.107 301.095 374.294 301.095H541.565V252.509H374.294C372.811 252.509 371.698 251.396 371.698 249.912V218.016H541.565ZM371.698 137.162C371.698 135.645 372.811 134.532 374.294 134.532H490.383C491.866 134.532 492.979 135.645 492.979 137.162V169.059H371.698V137.162Z" fill="url(#paint5_linear_883_22465)"/>
<path d="M1428.26 245.967L1483.93 301.094H1373.47L1428.26 245.967Z" fill="url(#paint6_linear_883_22465)"/>
<path d="M1526.85 137.162V270.75L1447.21 191.211C1437.13 181.129 1420.84 181.129 1410.76 191.211L1319.86 282.112C1312.71 273.312 1308.39 262.084 1308.39 249.912V169.059H1478.26V137.162C1478.26 135.645 1477.15 134.532 1475.66 134.532H1308.39V85.9458H1475.66C1503.85 85.9458 1526.85 108.941 1526.85 137.162Z" fill="url(#paint7_linear_883_22465)"/>
<path d="M1758.99 15.5103V301.095H1591.35C1587.91 301.095 1584.54 300.757 1581.3 300.083L1687.14 194.346V261.039C1687.14 275.335 1698.67 286.866 1712.93 286.866C1727.19 286.866 1738.76 275.335 1738.76 261.039V132.003C1738.76 117.707 1727.23 106.176 1712.93 106.176H1583.86C1569.6 106.176 1558.07 117.707 1558.07 132.003C1558.07 146.299 1569.6 157.797 1583.86 157.797L1650.59 157.089L1542.66 265.658C1541.04 260.701 1540.17 255.408 1540.17 249.912V137.162C1540.17 108.94 1563.16 85.9454 1591.35 85.9454H1710.4V15.5103H1758.99Z" fill="url(#paint8_linear_883_22465)"/>
<path d="M230.221 342.162H134.43V460.914H156.211V420.116H195.188L229.546 460.914H253.317V455.283L223.747 420.116H230.187C242.898 420.116 253.317 409.731 253.317 397.155V365.123C253.317 352.58 242.898 342.162 230.187 342.162H230.221ZM231.367 397.155C231.367 397.829 230.861 398.301 230.221 398.301H157.392C156.717 398.301 156.245 397.795 156.245 397.155V365.123C156.245 364.449 156.751 363.977 157.392 363.977H230.221C230.895 363.977 231.367 364.483 231.367 365.123V397.155ZM679.906 429.186L606.74 341.993H582.969V460.914H604.751V373.721L678.086 460.914H701.856V341.993H679.906V429.186ZM546.791 460.88H568.606V341.96H546.791V460.88ZM816.157 341.96H743.328C730.617 341.96 720.367 352.21 720.367 364.921V437.919C720.367 450.63 730.617 460.88 743.328 460.88H816.157C828.869 460.88 839.287 450.63 839.287 437.919V393.648H790.397V415.463H817.304V437.919C817.304 438.593 816.798 439.065 816.157 439.065H743.328C742.654 439.065 742.182 438.559 742.182 437.919V364.921C742.182 364.247 742.688 363.775 743.328 363.775H816.157C816.832 363.775 817.304 364.28 817.304 364.921V374.159H839.253V364.921C839.253 352.21 828.835 341.96 816.124 341.96H816.157ZM3.3042 363.808H51.8569V460.914H73.8068V363.808H122.191V342.027H3.3042V363.808ZM505.015 342.027H409.225V460.947H505.015C517.727 460.947 528.145 450.697 528.145 437.986V364.988C528.145 352.277 517.727 342.027 505.015 342.027ZM506.162 437.986C506.162 438.66 505.656 439.132 505.015 439.132H432.186C431.512 439.132 431.04 438.627 431.04 437.986V364.988C431.04 364.314 431.546 363.842 432.186 363.842H505.015C505.69 363.842 506.162 364.348 506.162 364.988V437.986ZM366.944 342.027H294.115C281.403 342.027 271.153 352.277 271.153 364.988V460.947H292.968V420.993H368.124V460.947H390.074V364.988C390.074 352.277 379.655 342.027 366.944 342.027ZM368.09 399.178H292.934V364.988C292.934 364.314 293.44 363.842 294.081 363.842H366.91C367.584 363.842 368.056 364.348 368.056 364.988V399.178H368.09ZM1841.5 429.22L1768.33 342.027H1744.56V460.947H1766.34V373.755L1839.68 460.947H1863.45V342.027H1841.5V429.22ZM1571.66 460.914H1593.47V341.993H1571.66V460.914ZM1703.42 341.993H1630.43C1617.71 341.993 1607.46 352.243 1607.46 364.955V437.952C1607.46 450.664 1617.71 460.914 1630.43 460.914H1703.42C1715.97 460.914 1726.39 450.664 1726.39 437.952V364.955C1726.39 352.243 1715.97 341.993 1703.42 341.993ZM1704.4 437.952C1704.4 438.627 1703.9 439.099 1703.42 439.099H1630.43C1629.75 439.099 1629.28 438.593 1629.28 437.952V364.955C1629.28 364.28 1629.79 363.808 1630.43 363.808H1703.42C1703.93 363.808 1704.4 364.314 1704.4 364.955V437.952ZM2000 374.025V364.955C2000 352.243 1989.62 341.993 1977.04 341.993H1904.04C1891.33 341.993 1881.08 352.243 1881.08 364.955V389.4C1881.08 402.111 1891.33 412.361 1904.04 412.361H1977.04C1977.54 412.361 1978.02 412.867 1978.02 413.507V437.952C1978.02 438.627 1977.51 439.099 1977.04 439.099H1904.04C1903.37 439.099 1902.89 438.593 1902.89 437.952V428.882H1881.08V437.952C1881.08 450.664 1891.33 460.914 1904.04 460.914H1977.04C1989.58 460.914 2000 450.664 2000 437.952V413.507C2000 400.796 1989.62 390.546 1977.04 390.546H1904.04C1903.37 390.546 1902.89 390.04 1902.89 389.4V364.955C1902.89 364.28 1903.4 363.808 1904.04 363.808H1977.04C1977.54 363.808 1978.02 364.314 1978.02 364.955V374.025H1999.97H2000ZM1139.61 341.993H1066.61C1053.9 341.993 1043.65 352.243 1043.65 364.955V437.952C1043.65 450.664 1053.9 460.914 1066.61 460.914H1139.61C1152.15 460.914 1162.57 450.664 1162.57 437.952V364.955C1162.57 352.243 1152.15 341.993 1139.61 341.993ZM1140.58 437.952C1140.58 438.627 1140.08 439.099 1139.61 439.099H1066.61C1065.93 439.099 1065.46 438.593 1065.46 437.952V364.955C1065.46 364.28 1065.97 363.808 1066.61 363.808H1139.61C1140.11 363.808 1140.58 364.314 1140.58 364.955V437.952ZM1440.16 363.808H1488.71V460.914H1510.66V363.808H1559.05V342.027H1440.13V363.808H1440.16ZM1003.35 342.027H930.357C917.646 342.027 907.396 352.277 907.396 364.988V389.433C907.396 402.145 917.646 412.395 930.357 412.395H1003.35C1003.86 412.395 1004.33 412.9 1004.33 413.541V437.986C1004.33 438.66 1003.83 439.132 1003.35 439.132H930.357C929.683 439.132 929.211 438.627 929.211 437.986V428.916H907.396V437.986C907.396 450.697 917.646 460.947 930.357 460.947H1003.35C1015.9 460.947 1026.32 450.697 1026.32 437.986V413.541C1026.32 400.83 1015.93 390.58 1003.35 390.58H930.357C929.683 390.58 929.211 390.074 929.211 389.433V364.988C929.211 364.314 929.716 363.842 930.357 363.842H1003.35C1003.86 363.842 1004.33 364.348 1004.33 364.988V374.058H1026.28V364.988C1026.28 352.277 1015.9 342.027 1003.32 342.027H1003.35ZM1202.69 341.858H1180.88V460.947H1299.8V439.132H1202.69V341.858ZM1405.97 437.986C1405.97 438.66 1405.47 439.132 1404.99 439.132H1332C1331.32 439.132 1330.85 438.627 1330.85 437.986V342.027H1309.03V437.986C1309.03 450.697 1319.28 460.947 1332 460.947H1404.99C1417.54 460.947 1427.95 450.697 1427.95 437.986V342.027H1406.01V437.986H1405.97Z" fill="#000046"/>
<defs>
<linearGradient id="paint0_linear_883_22465" x1="-333.53" y1="179.038" x2="2232.85" y2="18.6456" gradientUnits="userSpaceOnUse">
<stop stop-color="#000046"/>
<stop offset="0.22" stop-color="#000B78"/>
<stop offset="0.48" stop-color="#0019B1"/>
<stop offset="0.71" stop-color="#0022DB"/>
<stop offset="0.89" stop-color="#0028F4"/>
<stop offset="1" stop-color="#012BFE"/>
</linearGradient>
<linearGradient id="paint1_linear_883_22465" x1="-331.169" y1="216.97" x2="2235.21" y2="56.5774" gradientUnits="userSpaceOnUse">
<stop stop-color="#000046"/>
<stop offset="0.22" stop-color="#000B78"/>
<stop offset="0.48" stop-color="#0019B1"/>
<stop offset="0.71" stop-color="#0022DB"/>
<stop offset="0.89" stop-color="#0028F4"/>
<stop offset="1" stop-color="#012BFE"/>
</linearGradient>
<linearGradient id="paint2_linear_883_22465" x1="-327.326" y1="278.235" x2="2239.05" y2="117.842" gradientUnits="userSpaceOnUse">
<stop stop-color="#000046"/>
<stop offset="0.22" stop-color="#000B78"/>
<stop offset="0.48" stop-color="#0019B1"/>
<stop offset="0.71" stop-color="#0022DB"/>
<stop offset="0.89" stop-color="#0028F4"/>
<stop offset="1" stop-color="#012BFE"/>
</linearGradient>
<linearGradient id="paint3_linear_883_22465" x1="-323.886" y1="333.059" x2="2242.46" y2="172.666" gradientUnits="userSpaceOnUse">
<stop stop-color="#000046"/>
<stop offset="0.22" stop-color="#000B78"/>
<stop offset="0.48" stop-color="#0019B1"/>
<stop offset="0.71" stop-color="#0022DB"/>
<stop offset="0.89" stop-color="#0028F4"/>
<stop offset="1" stop-color="#012BFE"/>
</linearGradient>
<linearGradient id="paint4_linear_883_22465" x1="-328.743" y1="255.576" x2="2237.61" y2="95.1837" gradientUnits="userSpaceOnUse">
<stop stop-color="#000046"/>
<stop offset="0.22" stop-color="#000B78"/>
<stop offset="0.48" stop-color="#0019B1"/>
<stop offset="0.71" stop-color="#0022DB"/>
<stop offset="0.89" stop-color="#0028F4"/>
<stop offset="1" stop-color="#012BFE"/>
</linearGradient>
<linearGradient id="paint5_linear_883_22465" x1="-329.551" y1="242.697" x2="2236.83" y2="82.3044" gradientUnits="userSpaceOnUse">
<stop stop-color="#000046"/>
<stop offset="0.22" stop-color="#000B78"/>
<stop offset="0.48" stop-color="#0019B1"/>
<stop offset="0.71" stop-color="#0022DB"/>
<stop offset="0.89" stop-color="#0028F4"/>
<stop offset="1" stop-color="#012BFE"/>
</linearGradient>
<linearGradient id="paint6_linear_883_22465" x1="573.867" y1="328.675" x2="1829.83" y2="250.182" gradientUnits="userSpaceOnUse">
<stop stop-color="#000046"/>
<stop offset="0.22" stop-color="#000B78"/>
<stop offset="0.48" stop-color="#0019B1"/>
<stop offset="0.71" stop-color="#0022DB"/>
<stop offset="0.89" stop-color="#0028F4"/>
<stop offset="1" stop-color="#012BFE"/>
</linearGradient>
<linearGradient id="paint7_linear_883_22465" x1="-326.755" y1="287.372" x2="2239.59" y2="126.979" gradientUnits="userSpaceOnUse">
<stop stop-color="#000046"/>
<stop offset="0.22" stop-color="#000B78"/>
<stop offset="0.48" stop-color="#0019B1"/>
<stop offset="0.71" stop-color="#0022DB"/>
<stop offset="0.89" stop-color="#0028F4"/>
<stop offset="1" stop-color="#012BFE"/>
</linearGradient>
<linearGradient id="paint8_linear_883_22465" x1="-326.753" y1="287.136" x2="2239.59" y2="126.743" gradientUnits="userSpaceOnUse">
<stop stop-color="#000046"/>
<stop offset="0.22" stop-color="#000B78"/>
<stop offset="0.48" stop-color="#0019B1"/>
<stop offset="0.71" stop-color="#0022DB"/>
<stop offset="0.89" stop-color="#0028F4"/>
<stop offset="1" stop-color="#012BFE"/>
</linearGradient>
</defs>
</svg>
